<svg width="367" height="144" viewBox="0 0 367 144" fill="none" xmlns="http://www.w3.org/2000/svg">
<path fill-rule="evenodd" clip-rule="evenodd" d="M346.806 103.73C346.014 115.806 336.504 125.87 324.067 126.967C322.36 127.089 320.714 127.089 319.068 126.906C321.263 137.092 301.693 136.299 293.646 136.36C264.079 136.787 234.878 144.167 205.31 143.984C183.485 143.862 161.904 139.593 140.14 138.617C121.303 137.763 102.465 139.349 83.6882 140.873C73.5073 141.727 63.2654 142.581 53.0845 143.435C44.9764 141.666 38.2704 135.994 35.1613 128.248C32.7227 129.346 30.1013 130.017 27.297 130.322C13.5192 131.542 1.32654 121.356 0.10727 107.572C-0.685255 99.0335 2.97255 91.0437 9.12986 85.9814C8.27637 83.8467 7.7277 81.59 7.54481 79.1504C6.32554 65.3664 16.5064 53.1682 30.2842 51.9484C34.3687 51.5824 38.2704 52.2533 41.8672 53.6561C45.4641 45.7273 53.1455 39.9331 62.4119 39.0792C71.0078 38.2863 78.994 42.0068 84.0539 48.2279C86.5534 46.5201 89.3578 45.2393 92.345 44.5074C95.2712 29.5036 107.769 17.6104 123.802 16.1466C130.264 15.5367 136.422 16.8175 141.908 19.3791C145.81 15.8416 150.87 13.463 156.479 12.975C160.563 12.6091 164.465 13.28 168.062 14.6828C171.658 6.75395 179.34 0.959793 188.606 0.105918C197.202 -0.686967 205.188 3.03349 210.248 9.19359C213.723 6.81494 217.808 5.22917 222.258 4.80223C234.39 3.70439 245.241 11.5113 248.533 22.7946C249.265 22.6726 249.996 22.5506 250.728 22.4897C261.336 21.5138 271.273 25.4172 278.344 32.3092C280.905 31.1504 283.648 30.3575 286.575 30.1135C295.17 29.3207 303.157 33.0411 308.217 39.2622C311.691 36.8836 315.776 35.2978 320.226 34.8708C332.968 33.712 344.368 42.3728 346.928 54.632C357.475 56.7667 365.827 65.6714 366.863 76.9547C368.022 89.8848 359.182 101.351 346.745 103.791L346.806 103.73Z" fill="url(#paint0_linear_203_9)"/>
<defs>
<linearGradient id="paint0_linear_203_9" x1="184.583" y1="142.581" x2="181.532" y2="2.72859" gradientUnits="userSpaceOnUse">
<stop stop-color="#CEDEED"/>
<stop offset="1" stop-color="white"/>
</linearGradient>
</defs>
</svg>
