<svg width="338" height="96" viewBox="0 0 338 96" fill="none" xmlns="http://www.w3.org/2000/svg">
<g clip-path="url(#clip0_203_154)">
<path d="M56.151 96C41.1518 96 27.052 91.0064 16.4457 81.9416C5.84158 72.8749 0 60.8219 0 48C0 35.1781 5.84158 23.1251 16.4457 14.0584C27.052 4.99361 41.1518 0 56.151 0H281.849C296.848 0 310.948 4.99361 321.554 14.0584C332.161 23.1251 338 35.1781 338 48C338 60.8219 332.158 72.8749 321.554 81.9416C310.948 91.0082 296.848 96 281.849 96H56.151Z" fill="url(#paint0_linear_203_154)"/>
<path d="M56.151 94.8805C41.5022 94.8805 27.7315 90.0038 17.373 81.149C7.01459 72.2942 1.31189 60.5225 1.31189 48.0001C1.31189 35.4777 7.01459 23.7061 17.373 14.8513C27.7315 5.99647 41.5022 1.12158 56.151 1.12158H281.849C296.498 1.12158 310.268 5.99829 320.627 14.8531C330.985 23.7079 336.69 35.4796 336.69 48.0019C336.69 60.5243 330.985 72.296 320.627 81.1508C310.268 90.0056 296.498 94.8823 281.849 94.8823H56.151V94.8805Z" fill="url(#paint1_linear_203_154)"/>
<path d="M56.151 92.265C42.3205 92.265 29.3169 87.6605 19.5353 79.3007C9.75592 70.9408 4.36945 59.8249 4.36945 48.0002C4.36945 36.1755 9.75592 25.0614 19.5353 16.6997C29.3169 8.33992 42.3205 3.73535 56.151 3.73535H281.849C295.679 3.73535 308.683 8.33992 318.465 16.6997C328.244 25.0596 333.631 36.1755 333.631 48.0002C333.631 59.8249 328.244 70.939 318.465 79.3007C308.685 87.6605 295.682 92.265 281.849 92.265H56.151Z" fill="url(#paint2_linear_203_154)"/>
<path d="M281.851 4.85645H56.151C28.2774 4.85645 5.68134 24.1724 5.68134 47.9998V48.0017C5.68134 71.8291 28.2774 91.145 56.151 91.145H281.851C309.725 91.145 332.321 71.8291 332.321 48.0017V47.9998C332.321 24.1724 309.725 4.85645 281.851 4.85645Z" fill="url(#paint3_linear_203_154)"/>
<path d="M56.151 82.1788C34.1051 82.1788 16.168 66.8455 16.168 47.9998C16.168 29.1541 34.1051 13.8208 56.151 13.8208H281.849C303.895 13.8208 321.832 29.1541 321.832 47.9998C321.832 66.8455 303.895 82.1788 281.849 82.1788H56.151Z" fill="url(#paint4_linear_203_154)"/>
<path d="M56.151 81.0593C34.8273 81.0593 17.4777 66.2301 17.4777 47.9999C17.4777 29.7698 34.8273 14.9424 56.151 14.9424H281.849C303.173 14.9424 320.522 29.7716 320.522 48.0017C320.522 66.2319 303.175 81.0611 281.849 81.0611H56.151V81.0593Z" fill="url(#paint5_linear_203_154)"/>
<path d="M56.151 73.9619C39.4061 73.9619 25.7808 62.3162 25.7808 48.0002C25.7808 33.6842 39.404 22.0386 56.151 22.0386H281.849C298.594 22.0386 312.219 33.6842 312.219 48.0002C312.219 62.3162 298.596 73.9619 281.849 73.9619H56.151Z" fill="url(#paint6_linear_203_154)"/>
<path d="M56.151 73.2144C39.8869 73.2144 26.6547 61.903 26.6547 47.9998C26.6547 34.0966 39.8869 22.7852 56.151 22.7852H281.849C298.113 22.7852 311.345 34.0966 311.345 47.9998C311.345 61.903 298.113 73.2144 281.849 73.2144H56.151Z" fill="url(#paint7_linear_203_154)"/>
<path d="M90.7998 35V60L79.6843 53.9192H74V41.0808H79.6843L90.7998 35ZM78.7987 43.415H76.4V51.585H78.7987V43.415ZM81.1987 52.0693L88.3998 56.0084V38.9916L81.1987 42.9295V52.0693ZM97.3385 40.0712L98.1881 40.8975C99.0796 41.7646 99.7867 42.7939 100.269 43.9267C100.752 45.0596 101 46.2738 101 47.5C101 48.7262 100.752 49.9404 100.269 51.0733C99.7867 52.2061 99.0796 53.2354 98.1881 54.1025L97.3397 54.9276L95.6417 53.2761L96.4913 52.451C97.8414 51.1377 98.5999 49.3566 98.5999 47.4994C98.5999 45.6422 97.8414 43.8611 96.4913 42.5479L95.6429 41.7227L97.3385 40.0712ZM93.5213 43.7862L95.2181 42.1359L96.0665 42.961C97.3042 44.1648 97.9995 45.7976 97.9995 47.5C97.9995 49.2024 97.3042 50.8352 96.0665 52.039L95.2181 52.8641L93.5213 51.2138L94.3697 50.3887C94.7598 50.0093 95.0692 49.559 95.2803 49.0633C95.4914 48.5677 95.6 48.0365 95.6 47.5C95.6 46.9635 95.4914 46.4323 95.2803 45.9367C95.0692 45.441 94.7598 44.9907 94.3697 44.6113L93.5213 43.7862ZM93.0966 44.1982L93.9449 45.0233C94.2793 45.3485 94.5445 45.7345 94.7255 46.1594C94.9064 46.5842 94.9996 47.0396 94.9996 47.4994C94.9996 47.9593 94.9064 48.4146 94.7255 48.8395C94.5445 49.2643 94.2793 49.6503 93.9449 49.9755L93.0966 50.8007L91.3998 49.1503L92.2482 48.3252C92.4731 48.1063 92.5995 47.8095 92.5995 47.5C92.5995 47.1905 92.4731 46.8937 92.2482 46.6748L91.3998 45.8497L93.0966 44.1982Z" fill="#05FF00"/>
<path d="M254.152 35V60L243.465 53.9192H238V41.0808H243.465L254.152 35ZM242.614 43.415H240.307V51.585H242.614V43.415ZM244.921 52.0693L251.845 56.0084V38.9916L244.921 42.9295V52.0693ZM257.473 43.3742L259.92 45.8473L262.368 43.373L264 45.0222L261.552 47.5L263.999 49.9755L262.368 51.6258L259.92 49.1503L257.473 51.6258L255.841 49.9755L258.29 47.5L255.843 45.0233L257.473 43.3742Z" fill="#FF0000"/>
<rect x="111" y="39" width="2" height="17" rx="1" fill="#05FF00"/>
<rect x="151" y="39" width="2" height="17" rx="1" fill="#05FF00"/>
<rect x="191" y="39" width="2" height="17" rx="1" fill="url(#paint8_linear_203_154)"/>
<rect x="116" y="39" width="2" height="17" rx="1" fill="#05FF00"/>
<rect x="156" y="39" width="2" height="17" rx="1" fill="#05FF00"/>
<rect x="196" y="39" width="2" height="17" rx="1" fill="url(#paint9_linear_203_154)"/>
<rect x="121" y="39" width="2" height="17" rx="1" fill="#05FF00"/>
<rect x="161" y="39" width="2" height="17" rx="1" fill="url(#paint10_linear_203_154)"/>
<rect x="201" y="39" width="2" height="17" rx="1" fill="url(#paint11_linear_203_154)"/>
<rect x="126" y="39" width="2" height="17" rx="1" fill="#05FF00"/>
<rect x="166" y="39" width="2" height="17" rx="1" fill="url(#paint12_linear_203_154)"/>
<rect x="206" y="39" width="2" height="17" rx="1" fill="url(#paint13_linear_203_154)"/>
<rect x="131" y="39" width="2" height="17" rx="1" fill="#05FF00"/>
<rect x="171" y="39" width="2" height="17" rx="1" fill="url(#paint14_linear_203_154)"/>
<rect x="211" y="39" width="2" height="17" rx="1" fill="url(#paint15_linear_203_154)"/>
<rect x="136" y="39" width="2" height="17" rx="1" fill="#05FF00"/>
<rect x="176" y="39" width="2" height="17" rx="1" fill="url(#paint16_linear_203_154)"/>
<rect x="216" y="39" width="2" height="17" rx="1" fill="url(#paint17_linear_203_154)"/>
<rect x="141" y="39" width="2" height="17" rx="1" fill="#05FF00"/>
<rect x="181" y="39" width="2" height="17" rx="1" fill="url(#paint18_linear_203_154)"/>
<rect x="221" y="39" width="2" height="17" rx="1" fill="#FF0000"/>
<rect x="146" y="39" width="2" height="17" rx="1" fill="#05FF00"/>
<rect x="186" y="39" width="2" height="17" rx="1" fill="url(#paint19_linear_203_154)"/>
<rect x="226" y="39" width="2" height="17" rx="1" fill="#FF0000"/>
</g>
<defs>
<linearGradient id="paint0_linear_203_154" x1="169" y1="96" x2="169" y2="0" gradientUnits="userSpaceOnUse">
<stop stop-color="#C7C3C8"/>
<stop offset="0.01" stop-color="#C0BDC2"/>
<stop offset="0.02" stop-color="#908E94"/>
<stop offset="0.03" stop-color="#7F7E84"/>
<stop offset="0.04" stop-color="#737379"/>
<stop offset="0.05" stop-color="#6C6C72"/>
<stop offset="0.08" stop-color="#6B6B71"/>
<stop offset="0.09" stop-color="#68686E"/>
<stop offset="0.1" stop-color="#545457"/>
<stop offset="0.11" stop-color="#2A2928"/>
<stop offset="0.12" stop-color="#12110C"/>
<stop offset="0.31" stop-color="#12110C"/>
<stop offset="0.35" stop-color="#13120D"/>
<stop offset="0.36" stop-color="#676562"/>
<stop offset="0.37" stop-color="#FFFCFD"/>
<stop offset="0.45" stop-color="#FFFCFD"/>
<stop offset="0.49" stop-color="#1A1C1F"/>
<stop offset="0.55" stop-color="#1B1D20"/>
<stop offset="0.58" stop-color="#222327"/>
<stop offset="0.59" stop-color="#2D2E33"/>
<stop offset="0.6" stop-color="#3E3E44"/>
<stop offset="0.62" stop-color="#3C3C42"/>
<stop offset="0.63" stop-color="#3A393D"/>
<stop offset="0.66" stop-color="#3B3A3E"/>
<stop offset="0.67" stop-color="#48464C"/>
<stop offset="0.77" stop-color="#46444A"/>
<stop offset="0.81" stop-color="#3F3E45"/>
<stop offset="0.83" stop-color="#33353B"/>
<stop offset="0.84" stop-color="#2B2E35"/>
<stop offset="0.88" stop-color="#292C33"/>
<stop offset="0.89" stop-color="#25262C"/>
<stop offset="0.9" stop-color="#201F23"/>
<stop offset="0.93" stop-color="#212024"/>
<stop offset="0.95" stop-color="#28272B"/>
<stop offset="0.96" stop-color="#333237"/>
<stop offset="0.97" stop-color="#545359"/>
<stop offset="1" stop-color="#545359"/>
</linearGradient>
<linearGradient id="paint1_linear_203_154" x1="169" y1="94.8805" x2="169" y2="1.12158" gradientUnits="userSpaceOnUse">
<stop stop-color="#EEEEEE"/>
<stop offset="0.02" stop-color="#EBEBEB"/>
<stop offset="0.03" stop-color="#D6D7D7"/>
<stop offset="0.04" stop-color="#ABADAC"/>
<stop offset="0.05" stop-color="#696C6C"/>
<stop offset="0.06" stop-color="#000605"/>
<stop offset="0.07" stop-color="#060B0A"/>
<stop offset="0.08" stop-color="#171C1B"/>
<stop offset="0.09" stop-color="#333636"/>
<stop offset="0.1" stop-color="#5A5C5C"/>
<stop offset="0.12" stop-color="#898989"/>
<stop offset="0.17" stop-color="#6D6D6D"/>
<stop offset="0.21" stop-color="#5C5C5C"/>
<stop offset="0.25" stop-color="#565656"/>
<stop offset="0.27" stop-color="#5B5B5B"/>
<stop offset="0.31" stop-color="#6B6B6B"/>
<stop offset="0.35" stop-color="#898989"/>
<stop offset="0.38" stop-color="#8F8F8F"/>
<stop offset="0.41" stop-color="#A2A2A2"/>
<stop offset="0.42" stop-color="#ABABAB"/>
<stop offset="0.43" stop-color="#C7C7C7"/>
<stop offset="0.45" stop-color="#EBEBEB"/>
<stop offset="0.46" stop-color="#F9F9F9"/>
<stop offset="0.51" stop-color="white"/>
<stop offset="0.64" stop-color="white"/>
<stop offset="0.66" stop-color="#CDCDCD"/>
<stop offset="0.67" stop-color="#A9A9A9"/>
<stop offset="0.68" stop-color="#9C9C9C"/>
<stop offset="0.69" stop-color="#7F7F7F"/>
<stop offset="0.7" stop-color="#5B5B5B"/>
<stop offset="0.71" stop-color="#404040"/>
<stop offset="0.72" stop-color="#303030"/>
<stop offset="0.73" stop-color="#2B2B2B"/>
<stop offset="0.76" stop-color="#2C2C2C"/>
<stop offset="0.77" stop-color="#333333"/>
<stop offset="0.78" stop-color="#3F3F3F"/>
<stop offset="0.79" stop-color="#666666"/>
<stop offset="0.8" stop-color="#A1A1A1"/>
<stop offset="0.81" stop-color="#FDFDFD"/>
<stop offset="0.83" stop-color="#ECECEC"/>
<stop offset="0.84" stop-color="#E6E6E6"/>
<stop offset="0.9" stop-color="#F7F7F7"/>
<stop offset="0.95" stop-color="white"/>
<stop offset="0.98" stop-color="#FDFDFD"/>
<stop offset="0.99" stop-color="#EAEAEA"/>
<stop offset="1" stop-color="#D8D8D8"/>
</linearGradient>
<linearGradient id="paint2_linear_203_154" x1="169" y1="92.265" x2="169" y2="3.73535" gradientUnits="userSpaceOnUse">
<stop stop-color="#14120D"/>
<stop offset="0.28" stop-color="#5F5B59"/>
<stop offset="0.35" stop-color="#5B5754"/>
<stop offset="0.42" stop-color="#4F4B48"/>
<stop offset="0.49" stop-color="#3B3834"/>
<stop offset="0.56" stop-color="#1F1D18"/>
<stop offset="0.58" stop-color="#14120D"/>
<stop offset="0.66" stop-color="#2A2723"/>
<stop offset="0.73" stop-color="#3A3634"/>
<stop offset="0.79" stop-color="#403C3A"/>
<stop offset="0.89" stop-color="#2C2925"/>
<stop offset="1" stop-color="#14120D"/>
</linearGradient>
<linearGradient id="paint3_linear_203_154" x1="169" y1="91.1432" x2="169" y2="4.85645" gradientUnits="userSpaceOnUse">
<stop stop-color="#DCDBE0"/>
<stop offset="0.1" stop-color="#F9F9FB"/>
<stop offset="0.19" stop-color="#B3B1B9"/>
<stop offset="0.32" stop-color="#E7E8EB"/>
<stop offset="0.49" stop-color="#C0BDC5"/>
<stop offset="0.72" stop-color="#CFCED4"/>
<stop offset="1" stop-color="#F5F4F7"/>
</linearGradient>
<linearGradient id="paint4_linear_203_154" x1="169" y1="82.1788" x2="169" y2="13.8208" gradientUnits="userSpaceOnUse">
<stop stop-color="#C3C3C3"/>
<stop offset="0.01" stop-color="#A0A0A0"/>
<stop offset="0.03" stop-color="#676767"/>
<stop offset="0.05" stop-color="#3A3A3A"/>
<stop offset="0.07" stop-color="#1A1A1A"/>
<stop offset="0.08" stop-color="#070707"/>
<stop offset="0.09"/>
<stop offset="0.11" stop-color="#0A0A0A"/>
<stop offset="0.13" stop-color="#272727"/>
<stop offset="0.17" stop-color="#565656"/>
<stop offset="0.19" stop-color="#828282"/>
<stop offset="0.22" stop-color="#8C8C8C"/>
<stop offset="0.26" stop-color="#A9A9A9"/>
<stop offset="0.32" stop-color="#D8D8D8"/>
<stop offset="0.35" stop-color="#EDEDED"/>
<stop offset="0.36" stop-color="#E9E9E9"/>
<stop offset="0.37" stop-color="#DFDFDF"/>
<stop offset="0.38" stop-color="#CECECE"/>
<stop offset="0.39" stop-color="#B7B7B7"/>
<stop offset="0.4" stop-color="#989898"/>
<stop offset="0.41" stop-color="#454545"/>
<stop offset="0.42"/>
<stop offset="0.49" stop-color="#0A0A0A"/>
<stop offset="0.62" stop-color="#272727"/>
<stop offset="0.65" stop-color="#727272"/>
<stop offset="0.66" stop-color="#B7B7B7"/>
<stop offset="0.67" stop-color="#DFDFDF"/>
<stop offset="0.68" stop-color="#EDEDED"/>
<stop offset="0.75" stop-color="#828282"/>
<stop offset="0.78" stop-color="#777777"/>
<stop offset="0.82" stop-color="#5A5A5A"/>
<stop offset="0.88" stop-color="#2B2B2B"/>
<stop offset="0.93"/>
<stop offset="0.95" stop-color="#0A0A0A"/>
<stop offset="0.98" stop-color="#272727"/>
<stop offset="1" stop-color="#3D3D3D"/>
</linearGradient>
<linearGradient id="paint5_linear_203_154" x1="169" y1="81.0593" x2="169" y2="14.9424" gradientUnits="userSpaceOnUse">
<stop stop-color="#020812"/>
<stop offset="1" stop-color="#1C7BFF"/>
</linearGradient>
<linearGradient id="paint6_linear_203_154" x1="169" y1="73.9619" x2="169" y2="22.0386" gradientUnits="userSpaceOnUse">
<stop stop-color="#1C7BFF"/>
<stop offset="1" stop-color="#020812"/>
</linearGradient>
<linearGradient id="paint7_linear_203_154" x1="169" y1="73.2144" x2="169" y2="22.7852" gradientUnits="userSpaceOnUse">
<stop stop-color="#020812"/>
<stop offset="1" stop-color="#1C7BFF"/>
</linearGradient>
<linearGradient id="paint8_linear_203_154" x1="192" y1="43.5" x2="192" y2="56" gradientUnits="userSpaceOnUse">
<stop stop-color="#FF0000"/>
<stop offset="1" stop-color="#05FF00"/>
</linearGradient>
<linearGradient id="paint9_linear_203_154" x1="197" y1="44" x2="197" y2="56" gradientUnits="userSpaceOnUse">
<stop stop-color="#FF0000"/>
<stop offset="1" stop-color="#05FF00"/>
</linearGradient>
<linearGradient id="paint10_linear_203_154" x1="162" y1="26" x2="162" y2="49" gradientUnits="userSpaceOnUse">
<stop stop-color="#FF0000"/>
<stop offset="1" stop-color="#05FF00"/>
</linearGradient>
<linearGradient id="paint11_linear_203_154" x1="202" y1="46" x2="202" y2="56" gradientUnits="userSpaceOnUse">
<stop stop-color="#FF0000"/>
<stop offset="1" stop-color="#05FF00"/>
</linearGradient>
<linearGradient id="paint12_linear_203_154" x1="167" y1="36" x2="167" y2="56" gradientUnits="userSpaceOnUse">
<stop stop-color="#FF0000"/>
<stop offset="0.583291" stop-color="#05FF00"/>
</linearGradient>
<linearGradient id="paint13_linear_203_154" x1="207" y1="47.5" x2="207" y2="56" gradientUnits="userSpaceOnUse">
<stop stop-color="#FF0000"/>
<stop offset="1" stop-color="#05FF00"/>
</linearGradient>
<linearGradient id="paint14_linear_203_154" x1="172" y1="36.5" x2="172" y2="56" gradientUnits="userSpaceOnUse">
<stop stop-color="#F01101"/>
<stop offset="1" stop-color="#06FF01"/>
</linearGradient>
<linearGradient id="paint15_linear_203_154" x1="212" y1="50" x2="212" y2="56" gradientUnits="userSpaceOnUse">
<stop stop-color="#FF0000"/>
<stop offset="1" stop-color="#05FF00"/>
</linearGradient>
<linearGradient id="paint16_linear_203_154" x1="177" y1="36.5" x2="177" y2="56" gradientUnits="userSpaceOnUse">
<stop stop-color="#FF0000"/>
<stop offset="1" stop-color="#05FF00"/>
</linearGradient>
<linearGradient id="paint17_linear_203_154" x1="217" y1="52" x2="217" y2="56" gradientUnits="userSpaceOnUse">
<stop stop-color="#FF0000"/>
<stop offset="1" stop-color="#05FF00"/>
</linearGradient>
<linearGradient id="paint18_linear_203_154" x1="182" y1="39" x2="182" y2="56" gradientUnits="userSpaceOnUse">
<stop stop-color="#FF0000"/>
<stop offset="1" stop-color="#05FF00"/>
</linearGradient>
<linearGradient id="paint19_linear_203_154" x1="187" y1="42" x2="187" y2="56" gradientUnits="userSpaceOnUse">
<stop stop-color="#FF0000"/>
<stop offset="1" stop-color="#05FF00"/>
</linearGradient>
<clipPath id="clip0_203_154">
<rect width="338" height="96" fill="white"/>
</clipPath>
</defs>
</svg>
