<svg width="29" height="27" viewBox="0 0 29 27" fill="none" xmlns="http://www.w3.org/2000/svg">
<path d="M18.0442 0V27L6.10539 20.4328H0V6.56723H6.10539L18.0442 0ZM5.1542 9.08824H2.57774V17.9118H5.1542V9.08824ZM7.73194 18.4349L15.4665 22.6891V4.31093L7.73194 8.56387V18.4349ZM25.0673 5.47689L25.9798 6.36933C26.9373 7.30572 27.6969 8.4174 28.2151 9.64089C28.7333 10.8644 29 12.1757 29 13.5C29 14.8243 28.7333 16.1356 28.2151 17.3591C27.6969 18.5826 26.9373 19.6943 25.9798 20.6307L25.0686 21.5219L23.2448 19.7382L24.1573 18.8471C25.6075 17.4287 26.4222 15.5051 26.4222 13.4994C26.4222 11.4936 25.6075 9.57001 24.1573 8.15168L23.2461 7.26051L25.0673 5.47689ZM20.9674 9.48908L22.7898 7.70672L23.7011 8.5979C25.0304 9.89804 25.7772 11.6614 25.7772 13.5C25.7772 15.3386 25.0304 17.102 23.7011 18.4021L22.7898 19.2933L20.9674 17.5109L21.8786 16.6198C22.2975 16.2101 22.6299 15.7237 22.8566 15.1884C23.0833 14.6531 23.2 14.0794 23.2 13.5C23.2 12.9206 23.0833 12.3469 22.8566 11.8116C22.6299 11.2763 22.2975 10.7899 21.8786 10.3803L20.9674 9.48908ZM20.5111 9.93403L21.4223 10.8252C21.7815 11.1764 22.0663 11.5933 22.2607 12.0521C22.455 12.5109 22.5551 13.0027 22.5551 13.4994C22.5551 13.996 22.455 14.4878 22.2607 14.9466C22.0663 15.4055 21.7815 15.8224 21.4223 16.1735L20.5111 17.0647L18.6886 15.2824L19.5999 14.3912C19.8415 14.1548 19.9772 13.8342 19.9772 13.5C19.9772 13.1658 19.8415 12.8452 19.5999 12.6088L18.6886 11.7176L20.5111 9.93403Z" fill="black"/>
</svg>
